<?xml version="1.0" standalone="no"?>
<!DOCTYPE svg PUBLIC "-//W3C//DTD SVG 20010904//EN"
 "http://www.w3.org/TR/2001/REC-SVG-20010904/DTD/svg10.dtd">
<svg version="1.0" xmlns="http://www.w3.org/2000/svg"
 width="256.000000pt" height="256.000000pt" viewBox="0 0 256.000000 256.000000"
 preserveAspectRatio="xMidYMid meet">
<metadata>
Created by potrace 1.11, written by Peter Selinger 2001-2013
</metadata>
<g transform="translate(0.000000,256.000000) scale(0.100000,-0.100000)"
fill="#000000" stroke="none">
<path d="M1287 2504 c-1 -1 -47 -5 -102 -8 -133 -10 -138 -10 -151 -19 -7 -4
-28 -8 -48 -9 -20 -2 -36 -5 -36 -8 0 -9 -91 -31 -101 -24 -5 3 -8 0 -7 -7 2
-7 -1 -13 -7 -14 -5 0 -20 -6 -32 -13 -13 -7 -23 -9 -23 -5 0 4 -4 4 -8 -2
-10 -14 -79 -48 -97 -48 -8 0 -12 -4 -9 -9 3 -4 -8 -14 -23 -20 -15 -7 -33
-17 -39 -23 -40 -35 -56 -45 -65 -40 -5 4 -8 3 -7 -2 2 -4 -7 -18 -19 -30 -13
-13 -23 -21 -23 -18 0 7 -109 -109 -127 -136 -8 -10 -20 -16 -26 -13 -7 4 -9
4 -5 -1 7 -7 -65 -123 -85 -136 -5 -3 -8 -9 -7 -13 4 -11 -33 -76 -43 -76 -4
0 -6 -4 -2 -9 6 -11 -15 -61 -26 -61 -5 0 -5 -7 -2 -17 5 -12 3 -14 -7 -8 -8
5 -11 4 -7 -2 4 -6 -2 -39 -13 -72 -11 -34 -21 -73 -23 -87 -2 -14 -10 -30
-18 -35 -8 -5 -9 -9 -3 -9 6 0 11 -7 11 -15 0 -8 -3 -15 -6 -15 -9 0 -16 -314
-7 -328 2 -4 7 -29 10 -57 7 -59 10 -74 20 -97 4 -9 5 -21 2 -27 -3 -5 -2 -11
4 -13 5 -1 11 -14 14 -28 2 -14 5 -26 7 -27 1 -2 2 -6 4 -10 4 -16 18 -50 44
-108 15 -33 28 -64 28 -69 1 -5 5 -12 10 -15 5 -3 20 -24 33 -46 13 -22 27
-42 31 -45 4 -3 9 -11 11 -19 2 -11 -11 -14 -52 -16 -103 -4 -161 -57 -168
-154 -3 -46 0 -62 20 -91 13 -19 37 -41 53 -50 17 -8 32 -17 35 -20 3 -3 19
-5 35 -5 17 0 38 -3 47 -8 9 -4 20 -2 23 4 4 6 13 8 21 5 8 -3 14 -1 14 4 0 6
7 10 15 10 8 0 15 4 15 9 0 4 10 7 23 7 36 -3 59 12 48 32 -4 9 -5 26 0 37 4
11 8 14 8 6 1 -8 4 -11 8 -8 10 10 33 -13 33 -34 0 -10 8 -23 17 -28 10 -6 14
-11 9 -11 -5 0 -3 -6 3 -14 9 -11 8 -17 -8 -28 -12 -8 -18 -18 -14 -21 3 -4 2
-7 -3 -7 -6 0 -15 5 -22 12 -9 9 -12 9 -12 0 0 -7 4 -12 9 -12 13 0 6 -33 -8
-38 -9 -3 -9 -8 1 -19 11 -14 10 -15 -9 -9 -12 4 -24 3 -27 -2 -8 -13 45 -8
72 7 24 13 42 8 42 -12 0 -8 -4 -7 -9 2 -8 12 -12 12 -26 -2 -9 -10 -21 -17
-26 -17 -5 0 -9 -5 -9 -10 0 -6 11 -3 25 6 18 12 29 13 38 6 8 -7 18 -7 27 -2
20 13 33 12 25 -1 -4 -6 2 -13 14 -16 11 -3 18 -9 15 -14 -3 -5 -1 -9 5 -9 5
0 11 6 13 12 3 9 10 8 23 -5 12 -13 21 -15 28 -8 16 16 31 13 18 -3 -9 -11 -9
-16 0 -22 7 -4 9 -3 6 3 -11 18 18 36 32 20 6 -8 9 -16 6 -18 -2 -3 4 -5 15
-5 10 0 17 3 15 7 -3 3 2 15 10 25 19 25 19 35 0 28 -8 -4 -13 -10 -10 -14 6
-10 -21 -7 -31 3 -4 4 -13 2 -21 -4 -8 -8 -13 -8 -13 -1 0 11 -18 11 -38 -2
-8 -5 -12 -3 -10 6 2 8 -4 12 -17 10 -23 -4 -20 0 12 17 20 10 22 9 16 -6 -6
-16 -5 -17 12 -3 14 11 19 12 22 2 8 -22 25 -13 18 11 -5 19 -5 20 5 4 6 -9
15 -15 21 -12 5 4 6 -2 2 -12 -6 -15 -4 -16 9 -5 25 20 58 24 51 6 -7 -19 17
-15 35 6 8 8 11 9 7 2 -4 -7 -2 -19 4 -26 8 -10 5 -16 -15 -25 -19 -8 -24 -8
-18 0 5 8 3 9 -6 4 -8 -5 -11 -4 -7 2 3 5 0 10 -6 10 -7 0 -14 -10 -15 -21 -1
-17 1 -18 8 -6 9 14 15 7 11 -14 -1 -5 4 -4 12 2 8 7 17 9 20 5 4 -3 7 -1 7 5
0 7 9 12 21 12 11 0 18 -4 15 -9 -3 -5 1 -14 9 -21 10 -9 15 -9 15 -1 0 6 -5
11 -11 11 -8 0 -7 6 2 17 8 10 9 14 2 10 -6 -4 -15 -2 -19 4 -4 8 -3 9 4 5 7
-4 12 -2 12 5 0 7 6 5 13 -6 10 -13 16 -15 21 -6 4 6 12 8 18 5 8 -5 9 -1 4
12 -4 10 -4 15 0 11 4 -4 14 -1 23 6 14 10 14 10 3 -5 -19 -24 -6 -41 20 -27
16 8 19 8 13 -1 -5 -8 -3 -11 6 -8 8 3 13 10 12 16 -2 7 4 9 13 5 15 -5 15 -7
0 -15 -9 -5 -16 -17 -16 -26 0 -15 2 -15 10 -2 5 8 17 16 27 16 30 3 48 8 56
19 5 6 5 0 2 -13 -6 -21 -5 -22 13 -11 12 7 18 18 14 24 -3 5 2 4 11 -4 9 -7
17 -19 17 -25 0 -6 -5 -4 -10 4 -7 11 -10 11 -10 2 0 -7 -4 -11 -9 -7 -5 3
-12 1 -16 -5 -4 -6 -11 -8 -16 -5 -5 4 -9 1 -9 -4 0 -11 27 -10 46 2 15 9 24
-2 16 -21 -5 -14 -4 -15 10 -2 11 11 12 17 4 22 -6 4 6 8 26 8 31 0 36 -3 31
-17 -5 -16 -4 -15 9 1 10 13 17 15 22 8 4 -7 12 -12 19 -12 6 0 2 6 -8 14 -11
8 -23 12 -27 10 -5 -3 -8 0 -8 5 0 6 -8 11 -17 12 -10 0 -13 3 -6 5 6 3 29 -4
51 -15 22 -11 42 -17 46 -14 3 4 6 1 6 -5 0 -5 -5 -13 -10 -15 -6 -3 -5 -4 2
-3 15 3 18 32 3 29 -6 0 -16 5 -23 13 -16 18 -1 18 23 0 16 -12 22 -12 40 0
12 8 26 10 34 5 9 -6 10 -11 2 -15 -21 -13 -11 -25 22 -24 17 1 26 3 19 5 -6
3 -9 10 -6 15 4 7 2 8 -4 4 -7 -4 -12 -2 -12 3 0 6 7 11 15 11 8 0 15 6 16 13
0 6 5 2 11 -11 6 -12 15 -22 20 -22 12 0 10 14 -4 29 -11 11 -10 12 2 5 8 -5
24 -9 35 -9 11 0 19 -6 17 -12 -4 -23 15 -14 22 10 5 18 8 20 16 7 5 -8 10
-19 10 -25 0 -5 -5 -3 -10 5 -6 9 -10 10 -10 3 0 -12 19 -28 24 -22 2 2 7 15
11 28 5 17 4 21 -5 16 -9 -6 -9 -3 -1 14 7 11 14 21 17 21 3 0 2 -4 -1 -10 -3
-5 -1 -19 6 -31 6 -12 7 -19 2 -16 -5 3 -10 -4 -10 -15 -1 -11 -1 -19 0 -17 1
2 11 15 22 28 11 14 15 22 9 18 -6 -3 -11 0 -11 8 0 11 4 12 14 4 7 -6 11 -15
8 -19 -3 -4 2 -13 10 -20 8 -7 15 -9 15 -6 0 4 10 2 23 -4 20 -10 20 -9 -3 9
-19 16 -21 21 -9 21 9 0 22 -7 29 -15 7 -8 17 -15 23 -15 6 0 2 7 -9 15 -14
11 -15 15 -4 14 32 -3 51 1 45 10 -5 10 -36 7 -54 -3 -5 -4 -7 3 -4 14 6 21
15 25 27 13 8 -8 13 -9 42 -12 11 -1 14 -7 10 -17 -6 -15 -4 -15 19 0 25 16
26 16 23 0 -2 -9 3 -18 10 -20 7 -1 8 0 3 2 -12 6 -3 34 11 34 5 0 7 -4 4 -9
-3 -5 1 -14 8 -20 10 -9 16 -9 21 -1 4 6 2 9 -3 8 -6 -2 -10 2 -11 7 0 6 18
10 41 9 37 -1 39 0 18 11 -14 7 -18 15 -12 19 6 3 13 2 17 -3 3 -6 12 -8 20
-4 11 4 14 0 9 -13 -8 -20 -6 -19 16 10 10 13 10 17 3 12 -9 -5 -13 0 -13 13
0 12 -5 21 -11 21 -6 0 -9 -7 -6 -15 4 -8 1 -17 -5 -21 -6 -4 -8 -3 -4 4 11
18 -26 6 -40 -13 -9 -12 -14 -14 -14 -6 0 10 -3 11 -13 3 -10 -8 -13 -6 -14 9
-2 21 7 25 24 8 9 -9 12 -7 10 10 -1 13 -8 21 -19 21 -22 0 -29 12 -16 30 8
12 9 12 4 -2 -3 -12 2 -18 17 -20 12 -2 21 -9 20 -15 -2 -6 6 -11 17 -10 25 2
26 13 3 26 -15 8 -16 12 -4 23 8 7 11 9 9 3 -8 -13 19 -38 27 -25 3 5 -8 24
-25 42 -29 31 -31 32 -24 8 5 -20 4 -23 -6 -13 -10 9 -10 18 -1 42 11 25 37
47 49 41 2 -1 13 5 26 14 18 11 26 12 37 3 7 -7 5 -2 -5 10 -17 21 -17 22 3
33 18 9 25 6 51 -20 16 -16 33 -30 38 -30 17 0 29 24 26 53 -2 17 1 25 8 21 6
-4 5 3 -2 16 -10 18 -10 21 2 14 10 -6 11 -5 2 7 -15 19 -14 42 3 58 11 10 13
-3 9 -79 l-4 -91 64 2 c36 1 64 7 64 13 0 6 5 5 12 -2 15 -15 72 -16 99 -1 11
5 24 22 30 36 6 17 13 23 22 17 7 -5 4 -1 -6 9 -15 13 -17 20 -8 31 9 11 9 16
0 22 -8 4 -9 3 -5 -4 14 -23 -7 -11 -41 23 -24 24 -30 35 -19 35 9 0 16 -4 16
-10 0 -5 9 -10 20 -10 11 0 20 5 20 10 0 6 11 10 24 10 24 0 36 21 36 67 0 33
-26 41 -129 39 -51 0 -95 2 -97 6 -2 3 1 13 8 20 27 29 104 167 130 233 41
102 74 225 76 283 1 18 5 31 10 29 8 -6 7 246 -1 260 -3 4 -4 27 -4 50 1 22
-1 39 -5 36 -5 -2 -9 10 -9 26 -2 36 0 30 -23 106 -9 33 -26 79 -37 103 -11
24 -16 48 -13 54 5 7 2 8 -6 3 -8 -5 -11 -3 -8 6 2 7 -4 23 -14 33 -10 11 -16
26 -13 34 3 8 0 10 -7 6 -8 -5 -9 -2 -5 10 4 10 3 15 -3 11 -6 -3 -10 1 -10 9
0 9 -4 16 -10 16 -5 0 -10 6 -10 13 0 8 -9 22 -20 32 -11 10 -20 22 -20 27 0
5 -6 15 -12 23 -7 7 -27 30 -44 51 -49 60 -88 99 -151 151 -32 25 -57 50 -55
55 1 4 -1 7 -5 6 -5 -2 -44 18 -89 44 -44 26 -95 53 -112 59 -18 6 -32 18 -32
27 0 13 -2 14 -8 4 -7 -10 -14 -10 -38 3 -16 8 -35 15 -41 15 -7 0 -13 5 -13
11 0 5 -4 7 -10 4 -5 -3 -33 1 -62 10 -29 9 -78 19 -108 22 -30 3 -56 9 -58
14 -2 5 -11 5 -21 -1 -10 -5 -21 -7 -25 -3 -5 5 -74 11 -79 7z m1003 -1964 c0
-5 8 -7 18 -3 15 5 15 4 -1 -9 -13 -9 -19 -27 -19 -52 0 -30 7 -43 36 -68 20
-17 36 -34 36 -39 0 -15 -28 -10 -38 6 -6 12 -18 14 -50 9 -23 -3 -39 -10 -36
-15 3 -5 1 -9 -5 -9 -15 0 -24 20 -9 21 10 0 10 2 1 6 -7 2 -13 9 -13 14 0 5
9 4 20 -3 17 -11 22 -10 30 2 5 8 10 25 10 38 0 17 -6 22 -24 22 -26 0 -43 15
-27 24 5 4 11 1 13 -6 9 -26 38 2 38 37 0 19 5 35 10 35 6 0 10 -4 10 -10z
m-1993 -6 c12 -3 25 -15 28 -25 9 -26 45 -25 45 2 0 11 5 17 10 14 6 -4 7 -11
4 -17 -4 -6 -2 -8 3 -5 6 4 16 0 23 -8 9 -11 9 -23 -2 -57 -13 -39 -38 -64
-38 -38 0 6 5 8 10 5 6 -4 10 5 10 19 0 28 -7 30 -70 27 -45 -3 -61 -18 -37
-35 10 -8 17 -26 17 -48 0 -33 -2 -35 -35 -35 -20 0 -36 6 -39 14 -4 8 -11 11
-18 7 -7 -4 -10 -4 -7 0 4 4 -3 17 -16 30 -31 31 -28 112 5 138 22 18 66 23
107 12z m2130 0 c-3 -3 -12 -4 -19 -1 -8 3 -5 6 6 6 11 1 17 -2 13 -5z m-1883
-236 c-6 -10 -5 -10 7 -1 18 14 72 11 91 -5 8 -6 19 -8 24 -4 4 4 2 -1 -5 -10
-14 -19 -3 -24 17 -8 8 7 9 7 3 -1 -5 -6 -7 -18 -3 -27 4 -11 1 -14 -11 -9
-10 4 -20 0 -26 -11 -7 -11 -11 -12 -11 -4 0 7 -4 11 -10 7 -5 -3 -7 -12 -3
-20 3 -8 0 -15 -7 -15 -6 0 -8 5 -5 10 3 6 -2 10 -11 10 -10 0 -14 -3 -11 -7
4 -3 2 -12 -3 -18 -8 -9 -2 -12 25 -11 27 1 34 5 30 16 -3 8 2 6 10 -5 14 -18
14 -21 -2 -33 -10 -7 -17 -17 -16 -22 1 -4 -6 -6 -17 -3 -11 3 -18 9 -15 13 9
15 -14 21 -35 10 -15 -8 -18 -8 -14 3 6 18 -21 41 -37 31 -8 -5 -10 -2 -5 7 4
8 0 5 -8 -5 -9 -11 -19 -17 -22 -13 -4 4 -2 13 4 20 7 8 9 17 5 21 -4 4 1 4
11 0 13 -5 17 -4 13 3 -4 6 2 22 13 36 13 16 16 28 10 32 -12 7 -4 25 11 25 6
0 7 -6 3 -12z m1329 -65 c-3 -7 -6 -13 -8 -13 -2 0 -5 6 -8 13 -3 8 1 14 8 14
7 0 11 -6 8 -14z m-1143 3 c0 -2 -6 -9 -14 -15 -11 -9 -16 -9 -22 0 -4 8 -3 9
4 5 7 -4 12 -2 12 3 0 6 5 11 10 11 6 0 10 -2 10 -4z m1120 -16 c0 -5 -10 -15
-22 -21 l-23 -12 20 21 c23 24 25 25 25 12z m-1186 -12 c-5 -8 -2 -9 12 -4 10
4 15 4 11 0 -4 -4 1 -12 10 -19 13 -9 13 -14 3 -20 -9 -6 -11 -4 -5 5 6 10 4
12 -9 7 -9 -4 -15 -3 -12 2 3 5 -1 11 -9 15 -17 6 -20 26 -4 26 5 0 7 -5 3
-12z m84 -13 c-3 -3 -9 2 -12 12 -6 14 -5 15 5 6 7 -7 10 -15 7 -18z m62 1 c0
-2 -8 -10 -17 -17 -16 -13 -17 -12 -4 4 13 16 21 21 21 13z m947 -37 c-9 -6
-14 -16 -11 -22 4 -7 3 -8 -1 -4 -17 15 -12 33 9 34 19 2 19 1 3 -8z m53 -1
c0 -4 -4 -8 -9 -8 -6 0 -12 4 -15 8 -3 5 1 9 9 9 8 0 15 -4 15 -9z m37 -13
c-1 -14 -7 -26 -12 -26 -6 0 -15 -5 -21 -10 -6 -5 -14 -6 -18 -2 -5 5 38 59
51 62 1 1 1 -10 0 -24z m-142 6 c3 -5 2 -12 -3 -15 -5 -3 -9 1 -9 9 0 17 3 19
12 6z m-811 -16 c-7 -16 -24 -21 -24 -6 0 8 7 13 27 20 1 1 0 -6 -3 -14z m890
-6 c-3 -5 -10 -7 -15 -3 -5 3 -7 10 -3 15 3 5 10 7 15 3 5 -3 7 -10 3 -15z
m-854 -4 c0 -8 -2 -15 -4 -15 -2 0 -6 7 -10 15 -3 8 -1 15 4 15 6 0 10 -7 10
-15z m155 -4 c3 -5 2 -12 -3 -15 -5 -3 -9 1 -9 9 0 17 3 19 12 6z m460 -1 c3
-5 1 -10 -4 -10 -6 0 -11 5 -11 10 0 6 2 10 4 10 3 0 8 -4 11 -10z m126 -10
c6 0 7 6 3 13 -5 9 -3 8 7 -1 12 -11 11 -15 -4 -23 -9 -6 -14 -16 -11 -22 4
-7 3 -9 -1 -5 -5 5 -9 20 -11 35 -1 16 0 22 3 16 2 -7 9 -13 14 -13z m-908 -3
c4 3 7 1 7 -5 0 -17 -16 -15 -31 6 -12 15 -12 16 2 5 9 -7 19 -10 22 -6z m444
-14 c0 -17 -13 -17 -20 0 -3 8 0 14 7 14 7 0 13 -6 13 -14z m143 7 c0 -5 -2
-10 -4 -10 -3 0 -8 5 -11 10 -3 6 -1 10 4 10 6 0 11 -4 11 -10z"/>
<path d="M549 268 c-13 -18 -28 -36 -34 -40 -6 -5 -5 -8 3 -8 7 0 11 -4 8 -9
-3 -4 6 -19 21 -32 14 -13 23 -19 19 -12 -3 6 -2 14 3 18 5 3 8 14 6 25 -3 15
1 19 18 17 17 -2 22 3 22 25 1 15 5 31 10 35 4 4 5 0 2 -9 -4 -12 -2 -15 9
-11 22 8 -2 32 -27 26 -16 -5 -18 -8 -7 -15 9 -7 8 -8 -7 -5 -11 2 -19 9 -17
15 4 20 -6 14 -29 -20z m25 -9 c-3 -6 1 -9 9 -7 9 2 15 -1 14 -7 -1 -5 -9 -10
-17 -10 -8 0 -16 -10 -16 -22 -2 -35 -3 -36 -18 -24 -17 15 -12 52 9 67 8 6
11 15 7 19 -4 5 -1 5 6 1 7 -4 10 -12 6 -17z"/>
<path d="M549 243 c0 -5 -2 -16 -4 -25 -2 -10 0 -20 5 -23 5 -3 7 3 5 12 -1
10 2 24 8 31 6 8 6 12 -2 12 -6 0 -11 -3 -12 -7z"/>
<path d="M630 244 c0 -8 5 -12 10 -9 6 3 10 10 10 16 0 5 -4 9 -10 9 -5 0 -10
-7 -10 -16z"/>
<path d="M602 153 c5 -7 14 -10 19 -7 16 10 9 23 -10 21 -15 -1 -17 -4 -9 -14z"/>
<path d="M1809 123 c-12 -16 -12 -17 2 -6 9 7 19 10 22 6 4 -3 7 -1 7 5 0 17
-16 15 -31 -5z"/>
<path d="M1977 304 c-3 -4 -1 -16 5 -27 9 -17 8 -19 -7 -14 -9 4 -19 7 -21 7
-3 0 -3 4 1 9 11 19 -13 20 -30 1 -18 -20 -18 -21 4 -44 25 -27 91 -36 70 -10
-6 7 -9 19 -6 26 2 7 0 21 -5 31 -5 10 -5 17 1 17 5 0 12 -5 14 -10 3 -6 4 -5
3 2 -3 14 -20 21 -29 12z m-29 -23 c-2 -5 6 -16 17 -25 16 -11 17 -17 8 -27
-17 -17 -56 30 -41 49 12 14 19 16 16 3z"/>
<path d="M1944 251 c20 -22 26 -25 26 -13 0 4 -10 13 -22 21 -23 14 -23 14 -4
-8z"/>
<path d="M375 281 c-3 -5 -2 -12 3 -15 5 -3 9 1 9 9 0 17 -3 19 -12 6z"/>
<path d="M469 278 c11 -15 41 -15 41 -1 0 3 -6 3 -14 0 -7 -3 -20 0 -27 6 -11
10 -11 9 0 -5z"/>
<path d="M2012 265 c-9 -20 -10 -31 -2 -40 12 -15 -3 -30 -20 -20 -5 3 -10 1
-10 -5 0 -6 -5 -8 -10 -5 -6 4 -5 -5 2 -19 11 -25 21 -31 43 -26 37 8 57 6 62
-7 4 -11 8 -12 13 -2 14 21 0 40 -24 33 -18 -6 -19 -5 -9 8 7 8 10 18 6 21 -3
4 -1 7 5 7 5 0 12 -6 15 -12 2 -7 4 -1 4 15 0 23 -3 27 -21 21 -17 -5 -19 -4
-8 7 17 18 15 28 -5 25 -10 -2 -20 3 -23 11 -4 11 -9 7 -18 -12z m34 -21 c-3
-8 -1 -16 4 -19 7 -4 7 -26 0 -45 -1 -3 -2 -8 -1 -12 0 -4 -8 -5 -19 -3 -11 2
-20 -1 -20 -7 0 -6 -6 -5 -16 3 -14 12 -13 15 10 32 21 15 24 22 15 33 -13 16
-6 31 16 31 9 0 14 -6 11 -13z"/>
<path d="M2020 245 c0 -6 5 -16 11 -22 7 -7 3 -17 -17 -32 -21 -17 -23 -21 -8
-18 27 4 43 15 40 30 -3 17 -25 54 -26 42z"/>
<path d="M2090 286 c0 -2 7 -7 16 -10 8 -3 12 -2 9 4 -6 10 -25 14 -25 6z"/>
<path d="M445 259 c-4 -6 -5 -12 -2 -15 2 -3 7 2 10 11 7 17 1 20 -8 4z"/>
<path d="M2173 255 c0 -8 4 -12 9 -9 5 3 6 10 3 15 -9 13 -12 11 -12 -6z"/>
<path d="M2104 212 c2 -29 6 -55 11 -60 4 -4 4 4 0 18 -7 22 -6 23 9 11 9 -7
17 -11 17 -7 1 3 3 11 4 16 1 6 3 15 4 21 0 5 6 7 11 4 6 -3 10 -1 10 4 0 12
-28 10 -49 -3 -11 -7 -13 -5 -9 6 4 8 2 21 -2 28 -5 8 -7 -9 -6 -38z m33 -12
c-1 -12 -5 -16 -10 -11 -5 5 -6 14 -3 20 11 16 15 13 13 -9z"/>
<path d="M2137 249 c7 -7 15 -10 18 -7 3 3 -2 9 -12 12 -14 6 -15 5 -6 -5z"/>
<path d="M334 242 c4 -3 14 -7 22 -8 9 -1 13 0 10 4 -4 3 -14 7 -22 8 -9 1
-13 0 -10 -4z"/>
<path d="M420 235 c0 -8 -6 -12 -14 -9 -8 3 -16 1 -20 -4 -3 -5 5 -8 17 -7 18
1 40 35 23 35 -3 0 -6 -7 -6 -15z"/>
<path d="M2210 240 c0 -5 5 -10 11 -10 5 0 7 5 4 10 -3 6 -8 10 -11 10 -2 0
-4 -4 -4 -10z"/>
<path d="M446 217 c3 -10 9 -15 12 -12 3 3 0 11 -7 18 -10 9 -11 8 -5 -6z"/>
<path d="M335 209 c-4 -6 -5 -12 -2 -15 2 -3 7 2 10 11 7 17 1 20 -8 4z"/>
<path d="M425 193 c-5 -12 -9 -14 -12 -5 -6 16 -20 15 -26 -1 -3 -9 2 -13 14
-12 21 1 46 22 37 30 -3 3 -9 -2 -13 -12z"/>
<path d="M355 191 c-3 -5 -2 -12 3 -15 5 -3 9 1 9 9 0 17 -3 19 -12 6z"/>
<path d="M2200 180 c-9 -6 -10 -10 -3 -10 6 0 15 5 18 10 8 12 4 12 -15 0z"/>
<path d="M2150 155 c0 -8 2 -15 4 -15 2 0 6 7 10 15 3 8 1 15 -4 15 -6 0 -10
-7 -10 -15z"/>
<path d="M2015 129 c-4 -6 -4 -13 -1 -16 3 -4 6 -1 6 5 0 6 8 13 18 15 15 4
15 5 0 6 -9 0 -20 -4 -23 -10z"/>
<path d="M2056 123 c-6 -14 -5 -15 5 -6 7 7 10 15 7 18 -3 3 -9 -2 -12 -12z"/>
<path d="M516 113 c-6 -14 -5 -15 5 -6 7 7 10 15 7 18 -3 3 -9 -2 -12 -12z"/>
<path d="M557 123 c-4 -3 -7 -11 -7 -17 0 -6 5 -5 12 2 6 6 9 14 7 17 -3 3 -9
2 -12 -2z"/>
<path d="M826 108 c3 -4 9 -8 15 -8 5 0 9 4 9 8 0 5 -7 9 -15 9 -8 0 -12 -4
-9 -9z"/>
<path d="M1986 103 c-6 -14 -5 -15 5 -6 7 7 10 15 7 18 -3 3 -9 -2 -12 -12z"/>
<path d="M934 89 c-3 -5 -10 -6 -16 -3 -6 4 -6 -2 1 -15 13 -23 23 -29 15 -7
-3 8 1 13 13 12 10 0 20 3 23 8 7 12 -28 17 -36 5z"/>
<path d="M626 78 c3 -5 10 -6 15 -3 13 9 11 12 -6 12 -8 0 -12 -4 -9 -9z"/>
<path d="M982 70 c-7 -12 -8 -20 -2 -20 5 0 10 5 10 11 0 6 7 9 14 6 10 -4 13
-1 9 9 -7 19 -16 18 -31 -6z"/>
<path d="M1100 82 c0 -6 -12 -9 -27 -7 -16 2 -22 2 -15 -1 6 -3 9 -11 5 -17
-4 -7 1 -6 10 2 14 11 17 11 17 0 1 -9 4 -8 11 4 6 10 8 21 5 24 -3 4 -6 1 -6
-5z"/>
<path d="M1364 76 c-16 -12 -17 -17 -6 -28 11 -11 12 -10 6 6 -5 13 -4 17 3
13 6 -4 13 0 17 8 7 19 5 19 -20 1z"/>
<path d="M1450 83 c1 -14 28 -44 32 -36 3 4 -3 16 -14 26 -10 9 -18 14 -18 10z"/>
<path d="M1507 77 c-3 -8 -1 -20 4 -28 7 -11 9 -11 9 -1 0 8 5 10 13 6 9 -6 9
-5 0 8 -7 8 -10 18 -6 21 3 4 2 7 -4 7 -6 0 -13 -6 -16 -13z"/>
<path d="M856 63 c-6 -14 -5 -15 5 -6 7 7 10 15 7 18 -3 3 -9 -2 -12 -12z"/>
<path d="M1626 62 c-3 -5 1 -9 9 -9 8 0 12 4 9 9 -7 10 -11 10 -18 0z"/>
</g>
</svg>
